<svg width="116" height="192" viewBox="0 0 116 192" fill="none" xmlns="http://www.w3.org/2000/svg">
<path fill-rule="evenodd" clip-rule="evenodd" d="M47.2233 32.7591C44.7935 33.6738 42.5066 34.8744 40.3341 36.2465C35.0458 39.5338 30.3864 43.7645 25.4983 47.5664C20.9817 51.0824 16.3509 54.1982 11.0054 56.3135C11.5199 57.1711 11.9773 58.0287 12.3775 58.9434C14.9502 64.7177 14.8359 72.0642 14.8359 78.2672C14.8359 87.5003 14.8644 96.7334 14.893 105.967C14.893 110.54 14.9502 115.228 15.379 119.802C15.5219 121.374 15.8364 124.69 16.551 126.091L16.6082 126.205L16.6653 126.348C18.7521 132.008 22.3253 136.496 28.0424 139.126C34.9886 141.899 42.0779 144.9 48.6525 148.416C51.6254 150.017 55.2272 152.075 58 154.419C60.7728 152.075 64.3746 149.988 67.3475 148.416C73.9221 144.9 81.0113 141.899 87.9576 139.126C93.6747 136.496 97.2479 132.008 99.3346 126.348L99.3918 126.205L99.449 126.091C100.164 124.661 100.478 121.374 100.621 119.802C101.021 115.228 101.107 110.54 101.107 105.967C101.107 96.7334 101.164 87.5003 101.164 78.2672C101.164 72.0927 101.05 64.7463 103.622 58.9434C104.023 58.0287 104.48 57.1711 104.995 56.3135C99.6777 54.1982 95.0468 51.0824 90.5017 47.5664C85.6136 43.7645 80.9542 39.5624 75.6658 36.2465C73.4933 34.8744 71.2065 33.7024 68.7767 32.7591C65.2893 32.1016 61.6018 31.5871 58.0286 31.6442H57.9714H57.9142C54.3982 31.5871 50.7107 32.1016 47.2233 32.7591Z" fill="#FFD200"/>
<path fill-rule="evenodd" clip-rule="evenodd" d="M48.4238 36.9326C46.2799 37.7902 44.2504 38.905 42.3065 40.1627C37.6185 43.2214 33.4736 47.1376 29.1286 50.6822C25.0981 53.9696 21.0103 56.8567 16.2651 58.8291C16.7225 59.6295 17.1227 60.4299 17.4943 61.2874C19.7526 66.6615 19.6954 73.4935 19.6668 79.2677C19.6668 87.872 19.6954 96.4476 19.6954 105.052C19.6954 109.311 19.7526 113.685 20.1242 117.944C20.2385 119.402 20.5244 122.489 21.1818 123.804L21.239 123.918L21.2962 124.033C23.1542 129.321 26.3272 133.466 31.3869 135.924C37.5613 138.497 43.8502 141.298 49.6816 144.586C52.3115 146.072 55.513 147.987 57.9714 150.188C60.4298 147.987 63.6313 146.072 66.2612 144.586C72.0926 141.327 78.3815 138.526 84.5559 135.924C89.6156 133.466 92.7886 129.321 94.6466 124.033L94.7038 123.918L94.761 123.804C95.3898 122.489 95.6757 119.402 95.8186 117.944C96.1902 113.685 96.2474 109.34 96.2474 105.052C96.2474 96.4476 96.3046 87.872 96.276 79.2677C96.276 73.522 96.1902 66.6901 98.4485 61.2874C98.8201 60.4299 99.2203 59.6295 99.6777 58.8291C94.9611 56.8567 90.8447 53.9696 86.8142 50.6822C82.4692 47.1376 78.3243 43.2214 73.6363 40.1627C71.6925 38.905 69.6629 37.7902 67.519 36.9326C64.4317 36.3037 61.1444 35.8463 58 35.9035H57.9428H57.8856C54.7984 35.8463 51.5111 36.3323 48.4238 36.9326Z" fill="#005AFF"/>
<path fill-rule="evenodd" clip-rule="evenodd" d="M48.7954 144.099C49.1099 144.271 49.3957 144.442 49.7102 144.614C52.34 146.1 55.5416 148.016 58 150.217V113.484H48.7954V144.099Z" fill="#029C55"/>
<path fill-rule="evenodd" clip-rule="evenodd" d="M67.2045 36.8754C64.2316 36.3037 61.0872 35.8749 58.0572 35.9321H58V63.2027H67.2045V36.8754Z" fill="#029C55"/>
<path fill-rule="evenodd" clip-rule="evenodd" d="M19.6954 79.8396C19.6954 82.8982 19.6954 85.9855 19.6954 89.0441H31.3011V79.8396H19.6954Z" fill="#029C55"/>
<path fill-rule="evenodd" clip-rule="evenodd" d="M96.276 98.2199C96.276 95.1613 96.3046 92.074 96.3046 89.0154H83.241V98.2199H96.276Z" fill="#029C55"/>
<path fill-rule="evenodd" clip-rule="evenodd" d="M10.7767 79.2677C10.4622 65.8325 8.68994 60.0296 0.571655 53.1691C21.1532 52.3973 29.2429 33.2736 47.7663 27.8138C48.1094 27.728 48.481 27.6708 48.824 27.6137V31.4155V34.4742C48.481 34.5314 48.1379 34.6171 47.7663 34.6743C34.5884 39.8483 26.8989 53.1691 12.6633 57.6856C16.7796 63.2884 17.3799 67.8335 17.3228 79.2963L17.3513 89.0439H14.3499H10.9482C10.891 86.1282 10.8624 82.8695 10.7767 79.2677ZM57.9999 26.9562C61.2301 26.7847 64.6604 27.0705 68.2621 27.8138C86.757 33.3022 94.8753 52.3973 115.457 53.1691C107.339 60.0296 105.566 65.8325 105.252 79.2677V79.8394H102.022H98.7057V79.2677C98.6485 67.7763 99.2488 63.2598 103.365 57.657C89.1582 53.1405 81.4687 39.8197 68.2621 34.6457C64.3459 33.8453 60.9157 33.4737 57.9999 33.5309V31.387V26.9562ZM105.052 89.0153C104.737 112.798 105.509 114.885 103.908 122.203C103.136 126.434 101.679 130.236 99.5061 133.609C95.6185 140.641 88.7008 145.472 78.753 148.13C74.2651 149.96 70.4346 151.903 67.2331 154.019V150.274V146.815C71.8639 144.214 77.9812 141.298 85.6135 138.125C90.9876 135.553 94.7895 131.122 96.9906 124.862C98.1054 122.518 98.6771 115.943 98.7057 105.08L98.7343 89.0439H102.05H105.052V89.0153ZM63.4312 156.792C63.3454 156.877 63.2597 156.935 63.1739 157.02C63.2597 156.935 63.3454 156.849 63.4312 156.792ZM63.1453 157.02C62.9738 157.163 62.7737 157.335 62.6022 157.478C62.8023 157.306 62.9738 157.163 63.1453 157.02ZM62.0591 157.992C61.9733 158.078 61.8876 158.135 61.8304 158.221C61.8876 158.135 61.9733 158.049 62.0591 157.992ZM61.5445 158.45C61.4588 158.507 61.4016 158.592 61.3159 158.678C61.4016 158.592 61.4874 158.535 61.5445 158.45ZM61.3159 158.707C61.2301 158.793 61.1729 158.85 61.0872 158.936C61.1444 158.85 61.2301 158.764 61.3159 158.707ZM60.344 159.679C60.2868 159.764 60.201 159.822 60.1439 159.907C60.2296 159.85 60.2868 159.764 60.344 159.679ZM60.1439 159.936C60.0867 160.022 60.0009 160.079 59.9438 160.165C60.0009 160.079 60.0581 160.022 60.1439 159.936ZM59.9152 160.193C59.7151 160.422 59.515 160.679 59.3149 160.937C59.515 160.679 59.7151 160.422 59.9152 160.193ZM59.2863 160.937C59.2291 161.022 59.172 161.108 59.0862 161.165C59.172 161.108 59.2291 161.022 59.2863 160.937ZM59.0862 161.194C59.029 161.28 58.9719 161.337 58.9147 161.422C58.9719 161.337 59.029 161.28 59.0862 161.194ZM58.686 161.708C58.6288 161.794 58.5717 161.851 58.5145 161.937L58.686 161.708ZM58.5145 161.966C58.4573 162.051 58.4001 162.109 58.343 162.194C58.4001 162.109 58.4573 162.051 58.5145 161.966ZM58.343 162.223C58.2858 162.309 58.2286 162.366 58.1715 162.452C58.2286 162.394 58.2858 162.309 58.343 162.223ZM58.1715 162.48C58.1143 162.566 58.0571 162.652 57.9999 162.737C54.3982 157.192 47.5091 152.304 37.2755 148.159C27.3277 145.5 20.41 140.669 16.5224 133.637C14.3499 130.264 12.892 126.462 12.1202 122.232C10.7481 116 11.0911 113.57 11.034 98.2485H14.3499H17.3513V105.08C17.3513 115.943 17.9231 122.518 19.0665 124.862C21.2676 131.122 25.0694 135.553 30.4435 138.125C45.3937 144.385 54.5983 149.531 57.9999 153.561V158.164V162.737C58.0571 162.652 58.1143 162.566 58.1715 162.48Z" fill="#1F1960"/>
<path fill-rule="evenodd" clip-rule="evenodd" d="M29.7289 98.2199V89.0154H17.3228H14.3214H10.9197C10.9768 92.5314 10.9768 95.5615 11.0054 98.2199H14.3214H17.3228H29.7289Z" fill="#FFD200"/>
<path fill-rule="evenodd" clip-rule="evenodd" d="M101.993 79.8396H98.6772H85.4707V89.0441H98.6772H101.993H105.052C105.08 86.2713 105.138 83.2413 105.223 79.8396H101.993Z" fill="#FFD200"/>
<path fill-rule="evenodd" clip-rule="evenodd" d="M48.7954 62.0305H58V33.5307V31.3868V26.956C55.0842 26.7845 52.0256 27.0132 48.7954 27.6135V31.4154V34.474V62.0305Z" fill="#FFD200"/>
<path fill-rule="evenodd" clip-rule="evenodd" d="M67.2045 150.274V146.815V116.572H58V153.561V158.163V162.737C60.0296 159.621 63.0882 156.706 67.2045 154.019V150.274Z" fill="#FFD200"/>
<path fill-rule="evenodd" clip-rule="evenodd" d="M39.0478 59.7151H76.9522L67.2046 70.6919V79.8393H76.3234L87.3002 70.063V107.996L76.3234 98.2198H67.2046V107.367L76.9522 118.344H39.0478L48.7955 107.367V98.2198H39.6767L28.6999 107.996V70.063L39.6767 79.8393H48.7955V70.6919L39.0478 59.7151Z" fill="#FFFDFF"/>
<path fill-rule="evenodd" clip-rule="evenodd" d="M58 0L60.2297 6.91769L67.4904 6.88911L61.6018 11.1484L63.8601 18.066L58 13.7782L52.14 18.066L54.3983 11.1484L48.5096 6.88911L55.7704 6.91769L58 0Z" fill="#029C55"/>
<path fill-rule="evenodd" clip-rule="evenodd" d="M31.3297 5.86011L33.5594 12.7492H40.8201L34.9315 17.0085L37.1898 23.9262L31.3297 19.6383L25.4411 23.9262L27.6994 17.0085L21.8108 12.7492H29.1001L31.3297 5.86011Z" fill="#029C55"/>
<path fill-rule="evenodd" clip-rule="evenodd" d="M9.49039 22.5254L11.7201 29.4431H19.0094L13.1207 33.7023L15.379 40.62L9.49039 36.3322L3.63036 40.62L5.88862 33.7023L0 29.4431H7.26072L9.49039 22.5254Z" fill="#029C55"/>
<path fill-rule="evenodd" clip-rule="evenodd" d="M84.6703 5.86011L82.4407 12.7492H75.1799L81.0685 17.0085L78.8103 23.9262L84.6703 19.6383L90.5589 23.9262L88.3007 17.0085L94.1893 12.7492H86.9L84.6703 5.86011Z" fill="#029C55"/>
<path fill-rule="evenodd" clip-rule="evenodd" d="M106.51 22.5254L104.28 29.4431H96.9906L102.879 33.7023L100.621 40.62L106.51 36.3322L112.37 40.62L110.111 33.7023L116 29.4431H108.739L106.51 22.5254Z" fill="#029C55"/>
<path d="M42.8211 89.9299C42.8211 90.6731 42.8783 91.2734 42.9641 91.7308C43.0498 92.1882 43.2213 92.5598 43.4786 92.8171C43.7359 93.0743 44.0503 93.2744 44.4791 93.3602C44.9079 93.4459 45.451 93.5031 46.1085 93.5031C46.3371 93.5031 46.5658 93.5031 46.7945 93.5031C47.0232 93.5031 47.309 93.5031 47.5949 93.5031C47.8808 93.5031 48.2238 93.5031 48.5954 93.5031C48.967 93.5031 49.4244 93.4745 49.9389 93.4745L49.3958 96.3045C48.5382 96.3331 47.8808 96.3331 47.3662 96.3331C46.8517 96.3331 46.3943 96.3331 45.9369 96.3331C44.7364 96.3331 43.7073 96.2187 42.8497 95.99C42.0207 95.7614 41.3347 95.3897 40.8201 94.9038C40.3056 94.3893 39.934 93.7318 39.7053 92.9028C39.4766 92.0738 39.3623 91.0448 39.3623 89.8442V88.1576C39.3623 86.957 39.4766 85.9565 39.7339 85.1276C39.9626 84.2986 40.3628 83.6411 40.8773 83.1266C41.3918 82.612 42.0779 82.2404 42.9069 82.0117C43.7359 81.783 44.7649 81.6687 45.9369 81.6687C46.137 81.6687 46.3657 81.6687 46.623 81.6687C46.8803 81.6687 47.1375 81.6687 47.452 81.6687C47.7664 81.6687 48.1094 81.6687 48.4811 81.6687C48.8813 81.6687 49.31 81.6973 49.8246 81.6973L49.2814 84.5273C48.7669 84.5273 48.2524 84.4987 47.7092 84.4987C47.1661 84.4987 46.623 84.4987 46.1085 84.4987C45.451 84.4987 44.9079 84.5558 44.4791 84.6416C44.0503 84.7273 43.7359 84.9274 43.5072 85.1847C43.2785 85.442 43.107 85.8136 43.0212 86.271C42.9355 86.7283 42.9069 87.3286 42.9069 88.1004V89.9299H42.8211ZM52.3973 81.7545H59.0863C60.6013 81.7545 61.7161 82.0403 62.4308 82.6406C63.1454 83.2409 63.4884 84.1556 63.4884 85.3562V85.5849C63.4884 87.0714 62.8881 88.1004 61.6876 88.5864C62.3736 88.8151 62.9167 89.2153 63.3169 89.7584C63.7171 90.3015 63.8886 91.0162 63.8886 91.9309V92.3025C63.8886 93.7032 63.4599 94.7323 62.6023 95.3612C61.7447 95.99 60.5156 96.3045 58.8862 96.3045H52.3687V81.7545H52.3973ZM55.5417 93.7318H58.6289C59.3435 93.7318 59.8581 93.6174 60.1439 93.3602C60.4298 93.1315 60.5727 92.6741 60.5727 92.0452V91.788C60.5727 91.1305 60.4298 90.6731 60.1154 90.4159C59.8009 90.1586 59.2864 90.0443 58.5431 90.0443H55.5417V93.7318ZM55.5417 84.3272V87.5001H58.3716C59.0291 87.5001 59.5151 87.3858 59.7723 87.1285C60.0582 86.8713 60.1725 86.4997 60.1725 85.9565V85.6993C60.1725 85.2133 60.0582 84.8417 59.8009 84.6416C59.5436 84.4129 59.1149 84.3272 58.5146 84.3272H55.5417ZM69.7773 96.3045H66.4042V81.7545H76.695L76.1518 84.5844H69.7773V87.786H75.866L75.3228 90.616H69.7773V96.3045Z" fill="#231E60"/>
<path d="M7.86102 170.398H17.6373C19.8669 170.398 21.4963 170.827 22.5254 171.713C23.5545 172.599 24.069 173.914 24.069 175.687V176.03C24.069 178.231 23.1829 179.689 21.4391 180.432C22.4682 180.775 23.24 181.346 23.8117 182.147C24.3834 182.947 24.6693 184.005 24.6693 185.32V185.863C24.6693 187.921 24.0404 189.408 22.8112 190.322C21.5535 191.237 19.7526 191.723 17.38 191.723H7.86102V170.398ZM12.5205 187.921H17.037C18.0946 187.921 18.8379 187.75 19.2666 187.407C19.6954 187.064 19.8955 186.406 19.8955 185.491V185.091C19.8955 184.148 19.6668 183.462 19.2095 183.09C18.7521 182.719 17.9803 182.547 16.894 182.547H12.4919V187.921H12.5205ZM12.5205 174.143V178.774H16.6654C17.6373 178.774 18.3233 178.602 18.7235 178.231C19.1237 177.859 19.3238 177.316 19.3238 176.516V176.144C19.3238 175.429 19.1523 174.915 18.7807 174.6C18.4091 174.286 17.7802 174.114 16.894 174.114H12.5205V174.143ZM45.0222 177.716C45.0222 179.26 44.7077 180.518 44.0503 181.432C43.3928 182.347 42.4495 183.033 41.2203 183.49L46.0227 191.694H40.62L36.5609 184.205H33.1878V191.694H28.3854V170.398H36.9611C38.3904 170.398 39.6195 170.513 40.6486 170.77C41.6777 170.999 42.5067 171.399 43.1355 171.913C43.793 172.428 44.2504 173.114 44.5648 173.943C44.8793 174.772 45.0222 175.772 45.0222 176.944V177.716ZM40.1627 177.202C40.1627 176.63 40.1055 176.173 39.9911 175.801C39.8768 175.429 39.6767 175.143 39.4194 174.943C39.1622 174.743 38.8191 174.6 38.3904 174.515C37.9616 174.429 37.4184 174.4 36.7896 174.4H33.1592V180.317H36.7896C37.4184 180.317 37.9616 180.289 38.3904 180.203C38.8191 180.117 39.1622 179.974 39.4194 179.746C39.6767 179.517 39.8768 179.231 39.9911 178.86C40.1055 178.488 40.1627 178.031 40.1627 177.43V177.202ZM62.2878 186.52H54.6269L52.9404 191.666H47.9665L55.656 170.37H61.4589L69.1769 191.666H64.003L62.2878 186.52ZM55.8275 182.69H61.0872L58.4288 174.772L55.8275 182.69ZM82.1262 179.117C83.1553 179.288 84.0414 179.546 84.7275 179.86C85.4135 180.174 85.9852 180.575 86.414 181.061C86.8428 181.547 87.1286 182.118 87.3002 182.804C87.4717 183.462 87.5574 184.234 87.5574 185.12V185.577C87.5574 186.663 87.4145 187.578 87.1286 188.35C86.8428 189.122 86.3854 189.751 85.728 190.265C85.0705 190.78 84.2129 191.151 83.1267 191.38C82.0404 191.609 80.7255 191.752 79.1533 191.752C78.6959 191.752 78.21 191.752 77.724 191.752C77.2381 191.752 76.6664 191.752 76.0661 191.752C75.4658 191.752 74.7797 191.752 74.0079 191.723C73.2361 191.723 72.3785 191.694 71.378 191.666L72.1212 187.664C73.6935 187.692 75.037 187.721 76.1518 187.721C77.2666 187.721 78.2671 187.721 79.2105 187.721C79.8679 187.721 80.411 187.692 80.8398 187.607C81.2686 187.55 81.6116 187.435 81.8689 187.264C82.1262 187.092 82.2977 186.892 82.3835 186.635C82.4692 186.378 82.5264 186.035 82.5264 185.606C82.5264 185.234 82.4978 184.92 82.4406 184.662C82.3834 184.405 82.2691 184.176 82.0976 184.034C81.9261 183.862 81.6974 183.719 81.4115 183.605C81.1257 183.49 80.7255 183.405 80.2681 183.319L77.1237 182.776C75.9803 182.576 75.0084 182.318 74.2937 182.004C73.5505 181.69 72.9788 181.289 72.55 180.832C72.1212 180.346 71.8354 179.774 71.6639 179.117C71.4924 178.459 71.4352 177.688 71.4352 176.801V176.315C71.4352 175.372 71.5781 174.515 71.864 173.771C72.1498 173.028 72.6072 172.399 73.2361 171.885C73.865 171.37 74.6939 170.97 75.723 170.713C76.7521 170.455 78.0099 170.313 79.4677 170.313C80.0109 170.313 80.5254 170.313 81.0399 170.313C81.5545 170.313 82.0976 170.313 82.6979 170.313C83.2982 170.313 83.9271 170.312 84.6131 170.341C85.2992 170.341 86.071 170.37 86.9571 170.398L86.2139 174.4C84.6703 174.372 83.3268 174.343 82.2405 174.343C81.1543 174.343 80.1824 174.343 79.3534 174.343C78.7531 174.343 78.2671 174.372 77.8669 174.457C77.4667 174.515 77.1523 174.629 76.9522 174.8C76.7235 174.943 76.5806 175.143 76.4948 175.401C76.4091 175.658 76.3519 175.972 76.3519 176.344C76.3519 176.687 76.3805 176.973 76.4377 177.202C76.4948 177.43 76.5806 177.63 76.7235 177.802C76.8664 177.973 77.0951 178.088 77.3524 178.202C77.6383 178.316 78.0099 178.402 78.4672 178.488L82.1262 179.117ZM96.0759 170.398V191.694H91.1306V170.398H96.0759ZM105.595 170.398V187.521H115.6L114.799 191.666H100.65V170.398H105.595Z" fill="#029C55"/>
</svg>
