<svg width="138" height="166" viewBox="0 0 138 166" fill="none" xmlns="http://www.w3.org/2000/svg">
<path d="M98.5727 153.497C98.6149 153.539 98.636 153.592 98.6887 153.666C98.636 153.74 98.5938 153.824 98.5305 153.887C98.0982 154.394 97.6236 154.837 97.1068 155.248C96.917 155.395 96.7905 155.385 96.6112 155.237C96.0417 154.773 95.1664 154.299 95.1559 153.677C95.1453 153.012 96.0417 152.548 96.6217 152.074C96.7377 151.979 96.8432 151.873 97.0225 152.01C97.592 152.453 98.1193 152.938 98.5727 153.497Z" fill="#8C1539"/>
<path d="M102.148 148.372C100.692 146.895 98.8258 146.421 96.8116 146.4C96.2632 146.389 95.7253 146.442 95.198 146.526C91.7812 147.075 89.6403 149.648 89.7458 153.065C89.8513 156.439 92.6776 159.962 95.9363 160.795C96.6112 160.964 97.2756 160.964 97.9294 160.721C100.787 159.656 102.781 157.716 103.614 154.763C104.268 152.411 103.941 150.186 102.148 148.372ZM100.534 153.181C100.503 155.1 100.134 156.925 98.8364 158.401C97.2967 160.152 96.3159 160.173 94.8289 158.401C93.1838 156.45 92.7936 154.088 93.2681 151.641C93.6056 149.859 95.2402 148.868 97.1701 149.036C99.1422 149.205 100.387 150.449 100.534 152.369C100.545 152.643 100.534 152.907 100.534 153.181Z" fill="#8C1539"/>
<path d="M79.8115 158.116C82.5535 158.116 85.306 158.138 88.0479 158.106C88.5963 158.095 88.6596 158.296 88.5541 158.739C88.417 159.276 88.2694 159.814 88.1534 160.363C88.0901 160.647 87.953 160.732 87.6788 160.732C84.3568 160.721 81.0243 160.721 77.7023 160.732C77.3965 160.732 77.2911 160.616 77.27 160.342C77.27 160.299 77.2489 160.268 77.2489 160.226C76.9747 158.602 76.9852 158.612 78.4089 157.747C80.0963 156.735 81.7942 155.722 83.2706 154.394C84.1775 153.582 84.8525 152.654 84.7997 151.346C84.747 150.007 84.0193 149.184 82.68 149.057C80.9716 148.899 79.337 149.237 77.6602 149.912C77.8605 148.952 78.0715 148.066 78.5882 147.296C78.662 147.191 78.7991 147.128 78.9151 147.075C80.9399 146.305 83.0175 146.115 85.1056 146.716C88.8388 147.781 88.7334 152.147 86.93 154.172C85.7383 155.512 84.1986 156.292 82.5851 156.967C81.6676 157.347 80.729 157.684 79.801 158.032C79.7904 158.064 79.801 158.095 79.8115 158.116Z" fill="#8C1539"/>
<path d="M107.083 158.116C109.846 158.116 112.609 158.127 115.383 158.106C115.836 158.106 115.921 158.222 115.857 158.654C115.562 160.721 115.583 160.721 113.537 160.721C110.732 160.721 107.927 160.71 105.122 160.732C104.689 160.732 104.573 160.594 104.51 160.204C104.257 158.601 104.246 158.601 105.607 157.789C107.315 156.777 109.024 155.754 110.521 154.425C111.365 153.676 112.019 152.822 112.082 151.62C112.156 150.133 111.365 149.184 109.878 149.057C108.191 148.91 106.577 149.258 104.942 149.922C105.132 148.994 105.354 148.15 105.807 147.38C105.902 147.222 106.039 147.138 106.208 147.075C108.233 146.315 110.321 146.104 112.398 146.727C115.309 147.602 116.374 150.945 114.624 153.613C113.822 154.836 112.652 155.606 111.386 156.271C110.215 156.872 108.992 157.336 107.758 157.779C107.526 157.863 107.305 157.947 107.073 158.032C107.073 158.063 107.083 158.085 107.083 158.116Z" fill="#8C1539"/>
<path d="M119.622 158.116C122.364 158.116 125.117 158.127 127.859 158.106C128.386 158.095 128.46 158.264 128.386 158.718C128.07 160.721 128.07 160.721 126.055 160.721C123.271 160.721 120.487 160.711 117.703 160.732C117.218 160.732 117.091 160.563 117.028 160.131C116.817 158.58 116.807 158.58 118.135 157.779C119.844 156.767 121.552 155.744 123.05 154.404C123.862 153.687 124.516 152.865 124.59 151.715C124.706 150.123 123.915 149.163 122.333 149.036C120.666 148.899 119.074 149.247 117.46 149.901C117.65 148.973 117.872 148.129 118.325 147.36C118.42 147.201 118.568 147.117 118.737 147.054C120.761 146.294 122.839 146.105 124.927 146.706C128.629 147.771 128.523 152.074 126.815 154.067C125.823 155.227 124.547 155.965 123.187 156.608C122.027 157.178 120.804 157.579 119.622 158.116Z" fill="#8C1539"/>
<path d="M65.8066 150.027C65.8066 149.732 65.7222 149.606 65.4269 149.585C63.5181 149.479 61.6093 149.279 59.7005 149.553C57.0429 149.933 55.3661 151.472 54.8493 154.067C54.6173 155.206 54.5962 156.376 54.7966 157.526C54.881 157.979 54.8388 158.137 54.301 158.127C50.631 158.095 46.9505 158.116 43.2805 158.106C42.8375 158.106 42.3946 158.074 41.9517 158.011C40.9709 157.874 40.4647 157.325 40.4436 156.344C40.412 155.111 40.4436 153.866 40.4331 152.632C40.4331 152.337 40.5174 152.221 40.8233 152.232C41.3189 152.253 41.8251 152.242 42.3313 152.242C44.4511 152.242 44.4827 152.2 44.7358 150.07C44.778 149.669 44.6514 149.627 44.3245 149.637C43.2172 149.648 42.1204 149.616 41.0131 149.648C40.5491 149.658 40.412 149.542 40.4542 149.068C40.5491 148.076 40.5807 147.075 40.644 146.02C39.3785 146.431 38.2817 147.011 37.3853 147.918C37.2693 148.034 37.2271 148.171 37.206 148.33C37.1533 148.762 37.438 149.342 37.0689 149.574C36.7525 149.774 36.2042 149.627 35.7612 149.637C35.7401 149.637 35.719 149.637 35.7085 149.637C35.371 149.574 35.2656 149.764 35.2445 150.049C35.2023 150.671 35.1601 151.282 35.1074 151.905C35.0863 152.158 35.1707 152.253 35.4238 152.242C35.8245 152.232 36.2358 152.263 36.6365 152.232C37.09 152.189 37.2271 152.326 37.2271 152.801C37.2166 154.267 37.1427 155.743 37.2798 157.209C37.4486 159.129 38.6192 160.373 40.5174 160.668C40.9287 160.732 41.3611 160.732 41.7935 160.732C46.845 160.742 51.8859 160.679 56.9374 160.763C58.8041 160.795 60.059 160.014 61.0398 158.538C61.6304 157.652 62.0628 156.682 62.6006 155.722C62.6006 157.241 62.6111 158.759 62.5901 160.289C62.5901 160.647 62.685 160.753 63.0435 160.742C63.8134 160.721 64.5938 160.721 65.3636 160.742C65.6906 160.753 65.8487 160.689 65.8487 160.31C65.796 156.872 65.796 153.444 65.8066 150.027ZM60.9343 156.471C60.6812 156.998 60.386 157.494 59.9114 157.853C59.2997 158.317 58.667 158.179 58.4244 157.452C57.9393 156.018 57.9288 154.531 58.1291 153.054C58.224 152.379 58.7935 152.105 59.4157 151.978C60.4281 151.778 61.4511 151.884 62.5479 151.852C62.0417 153.476 61.6304 155.026 60.9343 156.471Z" fill="#8C1539"/>
<path d="M23.0639 163.822C22.9058 162.419 22.1886 161.438 20.9126 160.806C19.8369 160.278 18.7928 159.688 17.7382 159.129C17.1266 158.802 16.5255 158.475 15.8189 158.095C16.5676 157.8 17.1793 157.515 17.7488 157.157C18.3394 156.788 18.8878 156.366 19.3729 155.86C21.9039 153.181 21.5031 148.794 18.5292 146.811C16.9473 145.757 15.165 145.461 13.3195 145.619C10.6619 145.841 8.48947 146.969 7.38215 149.511C6.26428 152.084 6.58066 154.573 8.35238 156.809C9.4597 158.201 10.9045 159.171 12.4442 159.983C14.817 161.249 17.2004 162.472 19.5732 163.716C20.7333 164.317 21.8933 164.919 23.0956 165.551C23.1589 164.929 23.1272 164.37 23.0639 163.822ZM15.1334 157.452C14.9963 157.579 14.8803 157.61 14.7221 157.515C13.4672 156.819 12.2333 156.102 11.3052 154.974C10.2928 153.74 9.99754 152.327 10.3772 150.787C10.7568 149.237 11.9802 148.319 13.7519 148.214C15.3549 148.108 16.6098 148.878 17.2004 150.312C17.4851 150.998 17.5801 151.726 17.5906 152.464C17.6117 154.552 16.5571 156.092 15.1334 157.452Z" fill="#8C1539"/>
<path d="M33.6837 150.006C33.6837 149.701 33.5782 149.595 33.304 149.585C31.3952 149.479 29.4758 149.268 27.5776 149.563C25.5739 149.88 23.9287 150.766 23.1377 152.748C22.3257 154.794 22.3152 156.914 23.0323 158.992C23.7178 160.995 25.5633 161.533 27.3034 160.299C28.0416 159.772 28.5689 159.065 29.0435 158.306C29.5602 157.483 29.9504 156.587 30.4355 155.712V156.26C30.4355 157.589 30.4461 158.928 30.425 160.257C30.425 160.584 30.4672 160.742 30.8574 160.732C31.6694 160.7 32.4814 160.711 33.2935 160.732C33.5993 160.742 33.6837 160.626 33.6837 160.331C33.6731 156.893 33.6731 153.444 33.6837 150.006ZM28.6005 156.861C28.3896 157.251 28.1365 157.621 27.7569 157.874C27.1452 158.296 26.5968 158.148 26.3015 157.473C26.0379 156.882 25.9957 156.239 25.9535 155.606C25.9008 154.931 25.9008 154.256 25.9113 153.581C25.9324 152.643 26.3753 152.147 27.3245 151.957C28.3369 151.757 29.3598 151.863 30.4355 151.841C29.8766 153.581 29.4548 155.3 28.6005 156.861Z" fill="#8C1539"/>
<path d="M71.6806 154.383C71.9654 153.645 72.1552 152.886 72.5032 152.179C73.136 150.882 73.9902 149.838 75.4877 149.5C75.8674 149.416 76.0255 149.437 76.0783 149.88C76.1732 150.703 76.2681 151.525 76.2892 152.358C76.2892 152.601 76.2997 152.738 75.9623 152.727C74.6124 152.664 73.6949 153.381 73.041 154.478C72.2396 155.817 71.9232 157.304 71.7544 158.823C71.7017 159.319 71.6595 159.825 71.6595 160.331C71.6595 160.626 71.5752 160.742 71.2693 160.732C70.4784 160.711 69.6874 160.7 68.8965 160.732C68.5063 160.742 68.4114 160.616 68.4114 160.236C68.4219 157.874 68.4325 155.522 68.4008 153.16C68.3903 152.137 68.327 151.114 68.2532 150.091C68.2321 149.753 68.2743 149.606 68.6645 149.616C69.4343 149.648 70.2147 149.637 70.9846 149.616C71.2799 149.606 71.3642 149.711 71.4064 150.007C71.6068 151.472 71.6595 152.917 71.6806 154.383Z" fill="#8C1539"/>
<path d="M127.215 134.071C127.215 135.274 127.237 136.465 127.205 137.668C127.142 139.924 125.929 141.401 123.735 141.907C122.196 142.255 120.666 142.213 119.19 141.58C117.766 140.969 116.933 139.851 116.796 138.343C116.554 135.643 116.743 132.933 116.701 130.233C116.701 130.011 116.786 129.927 117.007 129.927C117.872 129.937 118.747 129.937 119.612 129.927C120.023 129.916 119.897 130.201 119.897 130.402C119.907 132.511 119.897 134.62 119.897 136.719C119.897 137.299 119.928 137.879 120.129 138.427C120.445 139.313 121.025 139.724 121.964 139.724C122.902 139.724 123.493 139.302 123.799 138.416C124.01 137.805 124.01 137.161 124.01 136.529C124.02 134.504 124.02 132.469 123.999 130.444C123.999 130.053 124.073 129.895 124.505 129.916C125.254 129.948 126.013 129.948 126.762 129.916C127.11 129.906 127.226 129.99 127.215 130.359C127.205 131.604 127.226 132.838 127.215 134.071Z" fill="#8C1539"/>
<path d="M135.23 130.212C134.956 130.138 134.661 130.085 134.376 130.054C132.699 129.821 131.023 130.001 129.346 129.927C128.882 129.906 128.818 130.085 128.818 130.486C128.84 132.279 128.829 134.072 128.829 135.875C128.829 137.731 128.84 139.587 128.818 141.433C128.818 141.812 128.924 141.928 129.304 141.918C130.052 141.886 130.812 141.897 131.56 141.918C131.919 141.928 132.024 141.823 132.014 141.464C131.993 140.378 132.024 139.302 131.993 138.216C131.982 137.794 132.119 137.699 132.51 137.71C133.248 137.741 133.975 137.72 134.703 137.594C136.686 137.235 137.93 135.917 137.993 134.061C138.088 132.015 137.16 130.728 135.23 130.212ZM133.237 135.421C133.068 135.442 132.889 135.453 132.573 135.474C132.119 135.59 131.94 135.348 131.993 134.746C132.046 134.04 132.014 133.323 132.003 132.606C131.993 132.279 132.098 132.142 132.436 132.173C132.72 132.205 133.016 132.194 133.3 132.226C134.355 132.353 134.819 132.859 134.809 133.839C134.787 134.799 134.271 135.316 133.237 135.421Z" fill="#8C1539"/>
<path d="M112.304 142.118C111.017 142.108 109.762 141.918 108.581 141.369C106.113 140.209 104.869 137.721 105.343 134.873C105.818 131.984 107.779 130.18 110.732 129.811C112.282 129.621 113.769 129.811 115.256 130.201C115.604 130.296 115.71 130.433 115.647 130.802C115.552 131.351 115.52 131.92 115.488 132.479C115.467 132.838 115.383 132.912 115.035 132.743C114.233 132.332 113.379 132.131 112.472 132.11C110.026 132.047 108.296 133.935 108.57 136.36C108.802 138.343 110.078 139.556 112.082 139.724C113.126 139.809 114.128 139.64 115.098 139.292C115.457 139.165 115.594 139.218 115.583 139.608C115.583 139.977 115.604 140.346 115.626 140.705C115.689 141.654 115.699 141.654 114.75 141.855C113.959 142.013 113.137 142.118 112.304 142.118Z" fill="#8C1539"/>
<path d="M47.0137 132.869C46.7817 134.198 46.5602 135.527 46.3282 136.856C46.0646 138.416 45.7798 139.977 45.5267 141.538C45.474 141.844 45.358 141.907 45.0838 141.907C43.9448 141.897 42.8059 141.897 41.6564 141.907C41.4349 141.907 41.2978 141.865 41.2451 141.622C40.3909 137.742 39.5367 133.871 38.6613 129.938C39.6843 129.938 40.6756 129.948 41.6564 129.927C41.9939 129.916 41.9622 130.17 41.9939 130.359C42.3208 132.279 42.6372 134.209 42.9641 136.128C43.1223 137.077 43.2805 138.026 43.523 138.986C43.7656 137.647 43.9976 136.307 44.2401 134.957C44.5143 133.397 44.7885 131.836 45.0522 130.275C45.0944 130.011 45.1893 129.916 45.4635 129.927C46.5813 129.938 47.7097 129.938 48.8276 129.927C49.1334 129.927 49.2073 130.043 49.26 130.317C49.7451 133.049 50.2513 135.78 50.7575 138.522C50.7786 138.648 50.7681 138.796 50.9368 138.933C51.2743 136.982 51.5906 135.073 51.9176 133.175C52.0758 132.226 52.2445 131.277 52.3921 130.317C52.4449 129.99 52.5925 129.916 52.8983 129.927C53.6366 129.948 54.3642 129.959 55.1024 129.927C55.5348 129.906 55.5665 130.054 55.4821 130.423C54.7439 133.692 54.0162 136.972 53.278 140.251C53.1831 140.684 53.046 141.116 52.9827 141.549C52.9405 141.854 52.7929 141.907 52.5187 141.907C51.4114 141.897 50.3146 141.886 49.2073 141.918C48.8382 141.928 48.7538 141.781 48.7011 141.475C48.1843 138.606 47.657 135.738 47.1297 132.88C47.077 132.869 47.0454 132.869 47.0137 132.869Z" fill="#8C1539"/>
<path d="M101.083 134.926C100.956 133.576 100.513 132.363 99.4797 131.435C98.52 130.581 97.3388 130.222 96.0944 130.064C94.0696 129.811 92.0342 129.98 90.0094 129.927C89.5981 129.916 89.6614 130.17 89.6614 130.412V135.917C89.6614 137.351 89.6509 138.775 89.6614 140.209C89.672 140.747 89.4294 141.454 89.7563 141.781C90.1043 142.139 90.8215 141.897 91.3698 141.886C93.1099 141.865 94.85 142.023 96.569 141.643C98.8364 141.158 100.418 139.914 100.956 137.573C101.156 136.708 101.167 135.812 101.083 134.926ZM97.6974 137.098C97.381 138.416 96.4424 139.25 95.0715 139.46C94.4809 139.555 93.8798 139.545 93.2787 139.555C92.9412 139.566 92.8463 139.46 92.8568 139.134C92.8779 138.047 92.8674 136.972 92.8674 135.885C92.8674 134.82 92.8779 133.755 92.8568 132.701C92.8463 132.363 92.9517 132.268 93.2787 132.279C94.0274 132.3 94.7867 132.268 95.5249 132.49C96.685 132.827 97.4127 133.576 97.6974 134.746C97.8767 135.527 97.8767 136.318 97.6974 137.098Z" fill="#8C1539"/>
<path d="M67.6837 135.537C67.6099 132.194 65.8698 130.18 62.5584 129.779C60.618 129.547 58.7619 129.853 57.296 131.308C56.0305 132.563 55.7036 134.177 55.6825 136.107C55.7141 138.037 56.2098 139.998 58.2029 141.222C59.8376 142.223 61.6409 142.308 63.4654 141.907C65.6167 141.433 66.9244 140.072 67.4623 137.952C67.6626 137.161 67.7048 136.349 67.6837 135.537ZM63.8556 138.395C63.4337 139.292 62.6744 139.745 61.662 139.735C60.6707 139.724 59.9747 139.25 59.5212 138.395C59.0993 137.615 58.9833 136.75 58.9728 136.022C58.9728 135.063 59.0888 134.251 59.4579 133.513C59.9008 132.606 60.6285 132.099 61.662 132.099C62.6955 132.089 63.4654 132.553 63.8872 133.481C64.6254 135.105 64.6149 136.771 63.8556 138.395Z" fill="#8C1539"/>
<path d="M78.894 141.496C78.3667 140.093 77.8605 138.67 77.3438 137.267C77.1434 136.74 76.8586 136.265 76.2997 136.033C76.3208 135.991 76.3208 135.97 76.3419 135.959C76.3946 135.928 76.4368 135.885 76.4895 135.875C77.4914 135.559 78.1347 134.905 78.3667 133.861C78.7991 131.889 77.85 130.37 75.8357 130.064C73.6316 129.727 71.3959 129.99 69.1812 129.927C68.8754 129.916 68.907 130.127 68.907 130.317C68.907 134.05 68.907 137.773 68.8965 141.506C68.8965 141.865 69.0441 141.907 69.3394 141.907C70.1198 141.897 70.8897 141.876 71.6595 141.918C72.0392 141.928 72.1024 141.791 72.1024 141.454C72.0814 140.199 72.113 138.944 72.0813 137.689C72.0708 137.309 72.1446 137.161 72.577 137.161C73.5578 137.14 74.18 137.562 74.5491 138.459C74.9498 139.461 75.2451 140.505 75.572 141.528C75.667 141.812 75.783 141.928 76.0993 141.918C76.9325 141.897 77.7551 141.897 78.5882 141.918C78.9257 141.907 79.0311 141.854 78.894 141.496ZM74.3698 134.746C73.6949 134.957 72.9989 134.905 72.3134 134.915C72.0814 134.915 72.0919 134.757 72.0919 134.599V133.27C72.0919 132.11 72.0919 132.099 73.273 132.205C73.6421 132.237 74.0007 132.247 74.3593 132.363C74.9077 132.553 75.2451 132.88 75.2557 133.492C75.2662 134.135 75.0026 134.546 74.3698 134.746Z" fill="#8C1539"/>
<path d="M80.4232 135.917C80.4232 134.103 80.4337 132.289 80.4126 130.475C80.4126 130.064 80.4759 129.895 80.9399 129.916C81.657 129.959 82.3742 129.959 83.0808 129.916C83.5448 129.885 83.608 130.064 83.608 130.465C83.587 133.302 83.608 136.138 83.5869 138.975C83.5869 139.439 83.7135 139.555 84.167 139.545C85.4747 139.513 86.7929 139.545 88.1112 139.524C88.4592 139.524 88.5963 139.598 88.5752 139.967C88.5435 140.462 88.5541 140.969 88.5752 141.475C88.5857 141.759 88.533 141.886 88.2061 141.886C85.7383 141.875 83.26 141.875 80.7923 141.886C80.381 141.886 80.4443 141.654 80.4443 141.401C80.4232 139.587 80.4232 137.752 80.4232 135.917Z" fill="#8C1539"/>
<path d="M36.4467 141.686C35.0546 137.858 33.6626 134.04 32.2811 130.212C32.1862 129.959 32.028 129.927 31.796 129.927C30.7941 129.938 29.7817 129.959 28.7798 129.917C28.3685 129.895 28.2209 130.064 28.0943 130.412C26.9132 133.681 25.7215 136.94 24.5298 140.199C24.3294 140.747 24.1396 141.296 23.9287 141.886H26.2699C27.5459 141.886 27.5565 141.886 27.9361 140.663C28.0311 140.368 28.1471 140.262 28.4529 140.262C29.2438 140.283 30.0348 140.273 30.8257 140.273C31.2898 140.273 31.8276 140.146 32.1862 140.346C32.5236 140.536 32.492 141.137 32.6396 141.559C32.7029 141.749 32.7556 141.897 33.0193 141.897C34.1582 141.886 35.2972 141.886 36.4362 141.886C36.4467 141.802 36.4678 141.739 36.4467 141.686ZM31.237 137.984C30.541 137.963 29.845 137.963 29.1595 137.984C28.7587 137.995 28.7693 137.826 28.8642 137.531C29.2966 136.075 29.7079 134.62 30.1297 133.154C30.3512 133.312 30.3406 133.576 30.4039 133.787C30.7835 135.031 31.1421 136.297 31.5323 137.541C31.6167 137.847 31.6272 137.995 31.237 137.984Z" fill="#8C1539"/>
<path d="M25.8375 129.927C25.5317 130.76 25.2469 131.541 24.9727 132.31C24.8673 132.606 24.6247 132.511 24.4349 132.511C23.2327 132.521 22.041 132.532 20.8387 132.511C20.4485 132.5 20.3325 132.627 20.3536 133.006C20.3853 133.492 20.3853 133.977 20.3536 134.451C20.322 134.884 20.5013 134.968 20.8809 134.957C21.7668 134.936 22.6632 134.957 23.549 134.947C23.876 134.947 24.0236 134.989 23.8654 135.358C23.6123 135.98 23.3803 136.613 23.1694 137.256C23.0745 137.541 22.9163 137.594 22.6526 137.583C22.0304 137.573 21.4188 137.594 20.7966 137.573C20.438 137.562 20.3325 137.668 20.3431 138.026C20.3642 139.165 20.3325 140.304 20.3642 141.443C20.3747 141.802 20.2693 141.907 19.9107 141.897C18.9405 141.876 17.9808 141.876 17.0106 141.897C16.7047 141.897 16.6204 141.812 16.6204 141.506C16.6309 137.773 16.6309 134.05 16.6204 130.317C16.6204 130.075 16.6309 129.917 16.9473 129.917C19.8896 129.938 22.8214 129.927 25.8375 129.927Z" fill="#8C1539"/>
<path d="M9.19605 129.927C8.90076 130.739 8.62657 131.478 8.37347 132.216C8.27855 132.511 8.07818 132.511 7.83563 132.511C6.62284 132.5 5.39951 132.522 4.18673 132.5C3.83872 132.49 3.70162 132.585 3.73326 132.954C3.78599 133.597 3.46961 134.451 3.85981 134.842C4.17619 135.158 5.03041 134.926 5.64207 134.937C6.085 134.947 6.52793 134.947 6.97086 134.937C7.22396 134.937 7.38215 134.937 7.24505 135.274C6.9814 135.938 6.73885 136.613 6.51739 137.288C6.43302 137.541 6.27483 137.584 6.03227 137.584C5.43115 137.573 4.83003 137.615 4.23946 137.573C3.77544 137.541 3.70162 137.71 3.71217 138.121C3.7438 139.218 3.70162 140.326 3.73326 141.422C3.74381 141.813 3.61726 141.907 3.24815 141.897C2.29902 141.876 1.34988 141.876 0.411294 141.897C0.073824 141.907 0 141.791 0 141.475C0.0105459 137.763 0.0105459 134.061 0 130.349C0 130.096 5.15441e-06 129.917 0.348021 129.917C3.26924 129.938 6.19046 129.927 9.19605 129.927Z" fill="#8C1539"/>
<path d="M10.3456 135.917C10.3456 134.103 10.3666 132.289 10.335 130.475C10.3245 130.001 10.4721 129.906 10.915 129.917C11.822 129.948 12.7289 129.938 13.6359 129.917C13.9312 129.917 14.0788 129.948 14.0788 130.307C14.0683 134.029 14.0683 137.763 14.0788 141.485C14.0788 141.823 13.9628 141.897 13.6464 141.897C12.6973 141.876 11.7587 141.865 10.8096 141.897C10.4194 141.907 10.335 141.781 10.335 141.412C10.3561 139.587 10.3456 137.752 10.3456 135.917Z" fill="#8C1539"/>
<path d="M82.9331 59.9865C83.3339 59.2588 83.7346 58.51 84.1353 57.7507C89.0708 48.4703 94.4282 36.912 94.6074 30.1626C94.8184 22.2004 93.6689 18.2035 92.5194 15.7147C92.0237 14.639 91.5386 13.848 91.1589 13.1309C91.0218 12.8778 90.9058 12.6353 90.8109 12.4032C90.5684 11.8127 90.2098 11.1166 89.7985 10.389C89.7985 10.389 89.7985 10.389 89.788 10.3784C89.5138 9.88277 89.2079 9.36602 88.9021 8.87037C88.9021 8.87037 88.8916 8.84927 88.8705 8.82818C88.649 8.45907 88.4275 8.10051 88.2061 7.76304C87.3519 6.39207 86.6136 5.28475 86.5082 5.0422C86.2762 4.54654 85.327 3.89269 83.4604 3.89269C83.1651 3.89269 82.7116 3.80832 82.1527 3.68177H82.1422C79.0838 2.94356 72.8407 0.570724 72.4083 0.328168C71.8915 0.0328824 68.8649 -0.0303931 68.095 0.0117906C67.3251 0.0539743 58.804 1.68859 57.6334 1.73078C56.4628 1.77296 54.3326 2.18425 52.8245 4.2618C51.3059 6.33934 51.7594 6.13897 50.652 6.49753C49.5447 6.85609 41.456 11.9392 40.5069 27.3996C39.5577 42.8599 57.4542 67.5373 58.9517 71.471C58.9517 71.471 51.2953 88.4077 50.6837 98.4474C50.5993 99.8711 50.6204 101.168 50.7259 102.349C50.768 102.835 50.8313 103.299 50.9051 103.752C51.907 109.858 55.4293 112.4 57.8655 113.496C58.4244 113.75 58.9095 113.96 59.3313 114.129C59.9324 114.372 60.4281 114.541 60.9343 114.625C61.9889 114.825 63.033 114.699 65.0156 114.319C65.0156 114.319 66.0807 114.962 67.9052 115.469C68.2005 115.553 68.5168 115.627 68.8543 115.701C69.1074 115.753 69.3711 115.806 69.6452 115.848C70.1515 115.933 70.6998 116.006 71.2693 116.038C71.4275 116.049 71.5752 116.059 71.7333 116.059C71.881 116.07 72.0286 116.07 72.1763 116.07C72.5032 116.07 72.8407 116.07 73.1887 116.059C74.3698 116.006 75.6459 115.838 76.9852 115.469C77.9238 115.215 78.894 114.878 79.8959 114.425C80.033 114.361 80.1595 114.298 80.2966 114.235C80.2966 114.235 80.9927 114.119 81.9523 113.57C83.3128 112.779 85.2005 111.113 86.3078 107.643C86.4765 107.116 86.6242 106.536 86.7613 105.914C87.5839 101.959 87.3308 98.4263 86.698 95.4735C86.6769 95.3575 86.6453 95.2415 86.6242 95.136C86.2445 93.4803 85.7489 92.025 85.2638 90.7911C85.1372 90.4747 85.0212 90.1794 84.8946 89.8947C84.7786 89.61 84.6521 89.3358 84.5466 89.0827C83.3971 86.4884 79.3264 78.5684 77.1434 74.4871C76.827 73.8965 76.5528 73.3798 76.3208 72.979C76.2681 72.8841 76.2154 72.7892 76.1732 72.7048C76.0466 72.4728 75.9412 72.283 75.8568 72.167C75.8568 72.167 76.1732 71.6608 76.7216 70.7538C77.9554 68.7501 80.3177 64.7954 82.9331 59.9865ZM56.9163 17.982C57.0323 17.6973 57.1589 17.4126 57.296 17.1384C57.3487 17.0962 58.899 15.894 62.1049 15.6303C63.5708 15.5143 65.3741 15.5776 67.5361 16.0521C69.582 16.5583 75.8146 18.9206 76.0783 28.7389C75.9412 32.1347 75.1186 36.3425 73.4418 41.4995C71.9864 45.9815 69.8983 51.1701 67.0299 57.1918C66.9982 57.1601 66.5553 56.5801 65.8487 55.5783C65.3214 54.8295 64.6465 53.8276 63.8872 52.6359C61.2191 48.3965 57.5596 41.6366 55.9461 34.3071C54.7755 28.9076 54.6911 23.2128 56.9163 17.982Z" fill="#EFECE8"/>
<path d="M66.5447 102.444C65.9858 105.65 64.8574 108.086 63.6552 109.879C61.6092 112.916 59.3524 114.108 59.3524 114.108C58.9306 113.939 58.4455 113.729 57.8865 113.475C55.4504 112.379 51.9281 109.837 50.9262 103.731C50.8524 103.288 50.7891 102.813 50.7469 102.328C52.8034 108.793 57.6018 110.312 60.5968 109.32C62.2209 108.782 62.9697 107.97 63.3071 107.253C63.7184 106.378 63.5075 105.629 63.5075 105.629L64.3196 102.676L66.5447 102.444Z" fill="#EBE7E3"/>
<path d="M56.3679 107.517C54.4697 106.273 53.1092 103.805 53.1936 100.124C53.4678 88.2601 59.9957 73.6646 59.9957 73.6646C59.9957 73.6646 60.0695 73.7806 60.1961 74.002C60.5863 74.677 61.5038 76.3432 62.5478 78.7582C63.0329 79.8866 63.5497 81.1732 64.0454 82.5969C65.4796 86.6782 66.7978 91.8879 67.0509 97.6565C67.4728 107.021 60.5863 110.291 56.3679 107.517Z" fill="#9A9794"/>
<path d="M57.0218 83.6199C56.0094 88.3761 53.3834 102.065 56.3679 107.517C54.4697 106.273 53.1092 103.805 53.1936 100.124C53.4678 88.2601 59.9957 73.6646 59.9957 73.6646C59.9957 73.6646 60.0695 73.7806 60.1961 74.002C59.6793 75.1726 57.9709 79.2012 57.0218 83.6199Z" fill="#ACA9A6"/>
<path d="M61.1769 102.012C60.9027 102.065 59.8376 101.559 58.9201 95.2205C58.1924 90.1795 61.2612 81.9326 62.5478 78.7583C63.033 79.8867 63.5497 81.1733 64.0454 82.597C57.4964 94.9674 61.43 101.97 61.1769 102.012Z" fill="#8F8C8A"/>
<path d="M63.6446 109.879C61.5987 112.916 59.3419 114.108 59.3419 114.108C58.9201 113.939 58.435 113.728 57.876 113.475C55.4399 112.379 51.9176 109.837 50.9157 103.731C51.9914 106.262 53.4889 108.846 55.4399 110.122C59.9219 113.064 63.5708 109.943 63.6446 109.879Z" fill="#CCC9C6"/>
<path d="M50.5466 9.55591C50.5466 9.55591 46.5391 21.3568 47.6359 31.7445C48.7327 42.1428 51.443 46.8885 52.4449 53.8488C52.4449 53.8488 50.6521 43.6298 49.9455 41.1937C49.2389 38.7576 47.2246 27.6949 48.237 23.35C49.26 19.0156 48.8803 17.4126 48.8803 17.4126C48.8803 17.4126 49.6502 12.224 50.5466 9.55591Z" fill="#CCC9C6"/>
<path d="M57.9604 69.1508C57.9604 69.1508 60.4914 64.5633 59.131 56.696C57.7705 48.8288 58.224 45.7599 58.224 45.7599L56.6527 39.116L56.3047 39.3796C56.3047 39.3796 58.6353 56.0211 58.7619 58.2779C58.9095 60.5347 59.7743 62.4857 57.9604 69.1508Z" fill="#E0DCD9"/>
<path d="M86.7824 105.914C86.6558 106.536 86.4976 107.106 86.3289 107.644C85.2216 111.113 83.3339 112.79 81.9734 113.57C81.0138 114.119 80.3177 114.235 80.3177 114.235C80.3177 114.235 80.5919 113.75 80.9821 112.98C81.1719 112.611 81.3829 112.178 81.6043 111.704C82.5324 109.711 83.6291 106.958 83.6291 105.07C83.6291 103.383 83.587 100.546 83.4499 97.8886C83.4393 97.5933 83.4182 97.3086 83.3971 97.0239C83.355 96.3595 83.3128 95.7056 83.2495 95.1045C83.1229 93.7546 82.9648 92.6157 82.7644 91.9407C82.0683 89.6523 79.1788 84.3371 79.1788 84.3371C79.1788 84.3371 78.2085 83.3036 76.8692 81.8694C76.1626 81.1206 75.3611 80.2559 74.5386 79.37C74.528 79.3595 74.5175 79.3489 74.5175 79.3384C74.3909 79.2013 74.2644 79.0642 74.1273 78.9165C72.9039 77.5983 71.6701 76.2484 70.6893 75.1727C70.1936 74.6243 69.7613 74.1392 69.4343 73.7701C69.118 73.4116 68.907 73.1479 68.8121 73.0108C68.6117 72.7261 68.1583 71.9668 67.5572 70.9649C65.8171 68.0437 62.9275 63.0871 62.126 62.0114C61.6409 61.3576 59.7743 55.7155 58.2346 49.2825C57.5491 46.4456 56.9269 43.4611 56.505 40.677C56.4945 40.6032 56.4839 40.5294 56.4734 40.4661C56.4418 40.213 56.3996 39.9599 56.3679 39.7173C56.3574 39.6751 56.3574 39.633 56.3468 39.6013C56.3468 39.5697 56.3363 39.5381 56.3363 39.517C56.3363 39.4959 56.3257 39.4853 56.3257 39.4642C56.3257 39.4537 56.3257 39.4326 56.3257 39.422C56.3257 39.4115 56.3257 39.4115 56.3257 39.401C56.3257 39.3904 56.3257 39.3799 56.3257 39.3799C56.3257 39.3799 56.3257 39.3799 56.3257 39.3693V39.3588C56.1043 37.6292 55.9672 36.0052 55.9672 34.592C55.9672 34.4866 55.9672 34.3811 55.9672 34.2756C57.5807 41.6051 61.2296 48.3544 63.9083 52.6044C64.657 53.7961 65.332 54.798 65.8698 55.5468C66.5764 56.5486 67.0193 57.1181 67.051 57.1603C69.9089 51.1386 72.0075 45.9394 73.4629 41.468L76.3946 45.9289L77.5336 47.6584L79.3159 50.3793L82.3847 55.0511L83.2706 56.3904L84.1459 57.7192C83.7451 58.4785 83.3339 59.2273 82.9437 59.955C80.3283 64.7534 77.966 68.7186 76.7427 70.7223C76.1943 71.6293 75.8779 72.1355 75.8779 72.1355C75.9517 72.2515 76.0572 72.4413 76.1943 72.6733C76.2365 72.7577 76.2892 72.8526 76.3419 72.9475C76.5634 73.3483 76.8481 73.865 77.1645 74.4556C79.3475 78.5369 83.4182 86.4569 84.5677 89.0512C84.6837 89.3043 84.7997 89.5784 84.9158 89.8632C85.0634 90.0952 85.2954 90.7596 85.2954 90.7596H85.2849C85.77 91.9935 86.2656 93.4488 86.6453 95.1045C86.6664 95.2205 86.698 95.326 86.7191 95.442C87.3519 98.4265 87.5944 101.97 86.7824 105.914Z" fill="#FFFBF7"/>
<path d="M63.1595 7.32007C63.1595 7.32007 53.8896 10.8635 51.7804 23.9404C49.6713 37.0174 59.7004 49.9678 55.1657 63.7302C55.1657 63.7302 58.0764 57.3605 52.4554 41.4889C46.8239 25.6278 52.0125 11.5279 63.1595 7.32007Z" fill="#CCC9C6"/>
<path d="M76.0888 28.7282C75.8251 18.91 69.582 16.5583 67.5466 16.0415C68.0212 16.147 68.5168 16.263 69.023 16.4106C73.3679 17.6234 76.4052 21.1668 76.0888 28.7282Z" fill="black"/>
<path d="M94.618 30.1627C94.4387 36.9121 89.0814 48.4598 84.1459 57.7508C83.7451 58.5101 83.3339 59.2589 82.9437 59.9865C80.3283 64.7849 77.966 68.7502 76.7427 70.7539C76.1943 71.6609 75.8779 72.1671 75.8779 72.1671L74.3909 69.6466L73.9374 68.8767L73.1465 67.5269L72.1763 65.8712L70.1198 62.391L67.0404 57.1708C69.8984 51.1491 71.997 45.9499 73.4523 41.4784C75.1291 36.3109 75.9517 32.1031 76.0888 28.7179C75.8252 18.8996 69.582 16.5479 67.5466 16.0311C65.3847 15.5671 63.5708 15.4933 62.1155 15.6093C58.9095 15.8729 57.3592 17.0752 57.3065 17.1174C60.8394 11.7284 63.6763 9.35556 66.2916 8.59626C67.3673 8.29042 68.4114 8.25879 69.4554 8.39588C70.9846 8.6068 72.5137 9.20792 74.1484 9.8934C76.5106 10.8847 78.2085 10.8531 79.4424 10.4418C79.9486 10.2731 80.381 10.041 80.7396 9.79849C81.5094 9.2712 81.9629 8.65953 82.2265 8.43807C82.2898 8.38534 82.3636 8.32206 82.448 8.25879C83.2073 7.67876 84.5783 6.88782 86.4449 7.62603C88.417 8.39588 89.6825 10.1992 89.7985 10.368C89.7985 10.3785 89.809 10.3785 89.809 10.3785C90.2098 11.1062 90.5684 11.8022 90.8215 12.3928C90.9164 12.6353 91.0429 12.8674 91.1695 13.1205C91.5491 13.8376 92.0342 14.6285 92.5299 15.7042C93.6794 18.2036 94.8289 22.2005 94.618 30.1627Z" fill="#CCC9C6"/>
<path d="M92.5299 15.7147L92.087 18.8047H91.2011C91.2011 18.8047 91.2011 18.8047 91.2011 18.7941C91.8655 12.1818 89.0814 10.273 87.1409 8.53293C85.2321 6.82449 82.564 8.21655 82.4586 8.26928C83.2179 7.68926 84.5888 6.89831 86.4555 7.63653C88.4276 8.40638 89.6931 10.2097 89.8091 10.3785C89.8091 10.389 89.8196 10.389 89.8196 10.389C90.2204 11.1167 90.5789 11.8127 90.832 12.4033C90.9269 12.6458 91.0535 12.8779 91.18 13.131C91.5491 13.8481 92.0448 14.639 92.5299 15.7147Z" fill="#BBB8B5"/>
<path d="M89.9145 32.0609C89.3767 35.9524 85.5274 43.092 84.4306 45.8866C83.3444 48.6602 83.1968 53.4375 83.1968 53.5324L83.4182 54.703L83.26 56.4115L82.9331 59.976C80.3177 64.7744 77.9554 68.7396 76.7321 70.7434C76.1837 71.6503 75.8674 72.1565 75.8674 72.1565L74.3804 69.636L73.9269 68.8662L73.136 67.5163L72.1657 65.8606L70.1093 62.3805L67.0299 57.1602C69.8878 51.1385 71.9865 45.9394 73.4418 41.4679C75.1186 36.3004 75.9412 32.0926 76.0783 28.7073C75.8146 18.8891 69.5714 16.5373 67.5361 16.0206C65.3742 15.5565 63.5603 15.4827 62.1049 15.5987C58.899 15.8624 57.3487 17.0646 57.296 17.1068C60.8289 11.7178 63.6657 9.345 66.2811 8.58569C67.1459 9.88284 68.3903 11.2538 70.1936 12.5299C70.4573 12.7197 70.742 12.899 71.0268 13.0783C72.4927 14.0063 74.2855 14.8605 76.479 15.5776C76.8798 15.7147 77.2911 15.8413 77.7234 15.9573C78.1453 16.0733 78.546 16.1999 78.9362 16.3264C91.4964 20.4288 90.4418 28.296 89.9145 32.0609Z" fill="#BBB8B5"/>
<path d="M94.618 30.1626C94.4387 36.912 89.0814 48.4598 84.1459 57.7507C83.7452 58.51 83.3339 59.2588 82.9437 59.9864C80.3283 64.7848 77.966 68.7501 76.7427 70.7538C76.1943 71.6608 75.8779 72.167 75.8779 72.167L74.3909 69.6465L73.9374 68.8767C73.9796 68.8134 75.783 66.2718 78.2191 62.296C79.221 60.6508 80.3388 58.7737 81.4778 56.7172C81.7731 56.1794 82.0789 55.631 82.3742 55.072C82.6484 54.5658 82.9226 54.0596 83.1862 53.5323C88.7334 42.902 94.0696 29.1502 90.4418 20.3549C90.4418 20.3549 90.8531 19.7854 91.1906 18.7941C91.1906 18.7941 91.1906 18.7941 91.1906 18.7835C91.6335 17.4969 91.971 15.4932 91.1589 13.1204C91.5386 13.8375 92.0237 14.6284 92.5194 15.7041C93.6794 18.2035 94.8289 22.2004 94.618 30.1626Z" fill="#EFECE8"/>
<path d="M78.2191 62.296L78.6198 62.8444L77.8605 66.1558C77.6813 66.6409 77.5231 67.0838 77.3965 67.4846L74.3909 69.6359L73.9375 68.8661L73.1465 67.5162L72.1763 65.8605L70.1198 62.3803L67.0404 57.1601C69.8984 51.1384 71.997 45.9392 73.4523 41.4678C75.1291 36.3003 75.9517 32.0924 76.0888 28.7072C75.8252 18.889 69.582 16.5372 67.5466 16.0205C65.3847 15.5564 63.5708 15.4826 62.1155 15.5986C63.0962 15.3877 64.2985 15.219 65.6167 15.2401C69.2445 15.2822 73.6844 16.7481 76.3314 22.6117C76.4579 22.8964 76.5845 23.1811 76.7005 23.4448C81.172 33.6743 78.7148 34.3282 76.7321 43.9672C76.595 44.6315 76.4896 45.2854 76.3947 45.9287C76.1732 47.5739 76.0888 49.1558 76.0994 50.6533C76.1205 52.9101 76.3736 54.9666 76.69 56.6961C77.0485 58.6471 77.502 60.1868 77.8184 61.1465C78.0504 61.8741 78.2086 62.2749 78.2191 62.296Z" fill="#9A9794"/>
<path d="M82.4796 39.7911C81.3934 45.391 78.9257 51.708 76.6794 56.7173C74.296 62.0219 72.1657 65.8817 72.1657 65.8817L70.1093 62.4016C71.3853 59.9022 74.2011 54.3972 76.0888 50.6745C76.0994 50.6639 76.0994 50.6534 76.1099 50.6429C78.6198 45.6968 85.4641 30.7849 80.3177 20.3655C79.2842 18.288 77.966 16.7483 76.5001 15.6198C74.7811 14.3016 72.8829 13.5318 71.0479 13.1205C68.2638 12.4877 65.6378 12.6564 64.0665 12.8674C66.3655 12.4983 68.4008 12.4139 70.2147 12.5615C74.1167 12.8779 76.9536 14.2805 78.9679 16.3686C84.3885 21.979 83.9033 32.4933 82.4796 39.7911Z" fill="#A5A2A0"/>
<path d="M82.1211 56.2004C81.6043 56.6856 81.1509 58.4678 78.8518 63.7197C78.4511 64.6372 78.1242 65.4387 77.8605 66.1558C77.6812 66.6409 77.523 67.0838 77.3965 67.4846C76.6372 69.8574 76.7427 70.7433 76.7427 70.7433C76.1943 71.6502 75.8779 72.1564 75.8779 72.1564L74.3909 69.6359L73.9374 68.8661L73.1465 67.5162L77.8183 61.157L80.2544 57.8351C80.5181 57.5292 81.0559 57.0547 81.4883 56.7066C81.8152 56.443 82.0789 56.2321 82.1211 56.2004Z" fill="#DAD7D3"/>
<path d="M86.6664 49.3773C86.6664 49.3773 97.9083 31.3649 92.1819 19.5007C92.1819 19.5007 95.6199 29.6037 86.6664 49.3773Z" fill="#FFFBF7"/>
<path d="M62.5584 13.1308C62.6217 13.1203 63.1701 12.9832 64.0559 12.8672C63.5603 12.941 63.0646 13.0254 62.5584 13.1308Z" fill="#A5A2A0"/>
<path d="M80.4021 10.5471L79.4319 10.4627C79.4319 10.4627 76.9852 10.6315 74.8866 9.57687C72.788 8.51173 67.9685 4.30391 61.8729 10.2624C55.7774 16.2208 50.3779 13.7425 50.3779 13.7425L50.6521 13.1203C50.6521 13.1203 51.1583 7.14076 52.1812 6.05453C53.0987 5.7487 60.0485 3.19659 60.9238 2.83803L64.1825 2.16309L66.5553 2.66929L70.5839 4.7152L73.9691 6.76111L77.038 8.343L78.7148 8.91248C78.7148 8.91248 80.2861 9.3765 82.2266 8.44846L80.4021 10.5471Z" fill="#FEFAF6"/>
<path d="M88.8916 8.82829C88.7967 8.68064 88.4908 8.22717 87.9741 7.65769C86.7718 6.35 84.4623 4.48337 81.172 4.81029C77.2911 5.20049 74.4015 5.98089 71.9337 5.26377C71.2271 5.06339 70.5628 4.73647 69.9195 4.24081C69.7824 4.13535 69.6664 4.04044 69.5503 3.95607C69.3922 3.82952 69.2551 3.71352 69.1391 3.60806C67.5572 2.16327 69.6453 2.63783 69.6453 2.63783L73.2203 3.29168L75.7514 3.7557L76.9958 3.56587C76.9958 3.56587 79.9697 3.66079 82.1633 3.66079H82.1738C82.7328 3.79788 83.1862 3.8717 83.4815 3.8717C85.3587 3.8717 86.3078 4.52555 86.5293 5.02121C86.6347 5.25322 87.373 6.37109 88.2272 7.74206C88.4486 8.10062 88.6701 8.45918 88.8916 8.82829Z" fill="#EBE7E3"/>
<path d="M76.9958 3.57634C76.9958 3.57634 74.7706 4.67312 73.3152 4.58875C71.8599 4.50438 69.582 3.80835 69.5187 3.97709L64.5199 2.16319L63.845 2.02609C63.845 2.02609 67.4095 0.802766 70.1515 1.41443C72.8934 2.03664 73.157 3.35488 76.9958 3.57634Z" fill="#BBB8B5"/>
<path d="M51.0317 10.7055C51.0317 10.7055 59.9746 0.265008 66.5553 3.08077C73.136 5.89653 77.8922 11.0113 82.2371 8.44864C82.2371 8.44864 80.2861 9.93562 76.0466 7.69988C71.8072 5.46415 68.443 2.45856 64.3828 1.88908C60.3227 1.33015 53.6787 6.64529 51.0317 10.7055Z" fill="#CCC9C6"/>
<path d="M87.5628 14.0802C87.5733 14.0802 87.5628 14.0802 87.5628 14.0802V14.7446L83.1862 12.8779L80.7185 9.81961C81.4883 9.29231 81.9418 8.68065 82.2054 8.45919C82.2687 8.40646 82.3425 8.34318 82.4269 8.2799C87.3624 6.33945 87.5628 13.9642 87.5628 14.0802Z" fill="#DEDBD7"/>
<path d="M90.1887 19.5006C87.257 14.1222 76.7638 12.8778 73.5051 11.5174C71.1322 10.5261 69.93 9.11291 69.4449 8.41688C70.974 8.6278 72.5032 9.22892 74.1378 9.9144C76.5001 10.9057 78.198 10.8741 79.4319 10.4628C79.9381 10.2941 80.3705 10.062 80.729 9.81949C81.4989 9.29219 81.9523 8.68053 82.216 8.45907C82.2793 8.40634 82.3531 8.34306 82.4375 8.27979C84.747 10.3257 86.3922 12.34 87.5522 14.08C89.672 17.2333 90.1887 19.5006 90.1887 19.5006Z" fill="#BCBAB7"/>
<path d="M78.198 104.87C78.198 104.87 79.4741 101.2 78.5882 94.9462C78.5882 94.9462 76.7743 86.2142 71.7017 81.7849C66.6291 77.3556 70.5839 77.7142 70.837 77.8935C70.837 77.8935 69.7085 77.3767 68.8016 78.2098C67.8946 79.043 62.6533 71.2917 59.1732 59.0901V61.3047L59.5212 60.6403C59.5212 60.6403 62.6428 70.9226 65.68 75.5206C65.68 75.5206 68.8649 81.6689 69.2445 82.9555C69.2445 82.9555 67.3146 77.7142 65.9225 75.6261C65.9225 75.6261 68.8965 79.6546 70.5628 81.3736C72.2501 83.0926 80.6341 91.1602 78.198 104.87Z" fill="#E1DEDA"/>
<path d="M81.9734 113.57C81.0138 114.119 80.3177 114.235 80.3177 114.235C80.1806 114.298 80.0435 114.361 79.917 114.425C78.9151 114.878 77.9449 115.215 77.0063 115.469C75.6564 115.827 74.3909 116.006 73.2098 116.059C72.8618 116.07 72.5243 116.08 72.1974 116.07C72.0497 116.07 71.9021 116.059 71.7544 116.059C71.5962 116.049 71.438 116.049 71.2904 116.038C70.7209 115.996 70.1725 115.933 69.6663 115.848C69.3921 115.806 69.1285 115.753 68.8754 115.701C68.5379 115.627 68.2215 115.553 67.9263 115.469C66.1018 114.962 65.0367 114.319 65.0367 114.319C65.0367 114.319 65.1 114.298 65.216 114.256C65.4374 114.171 65.8382 114.024 66.3549 113.855C66.6713 113.75 67.0299 113.634 67.4095 113.507C68.0528 113.307 68.7594 113.096 69.4449 112.927C69.7823 112.843 70.1093 112.769 70.4256 112.706C71.1322 112.568 71.7755 112.495 72.229 112.547C72.6719 112.59 73.1887 112.769 73.7476 112.98C74.6651 113.317 75.7092 113.76 76.8692 113.929C77.6496 114.045 78.4722 114.034 79.3264 113.792C79.569 113.718 79.8221 113.634 80.0752 113.518C80.3705 113.381 80.6763 113.222 80.9821 113.022L81.9418 113.233L81.9734 113.57Z" fill="#CCC9C6"/>
<path d="M86.3289 107.643C85.2216 111.113 83.3339 112.79 81.9734 113.57C81.0138 114.119 80.3177 114.235 80.3177 114.235C80.3177 114.235 80.5919 113.749 80.9821 112.98C81.1719 112.61 81.3829 112.178 81.6043 111.703C81.5938 111.714 82.8804 113.507 86.3289 107.643Z" fill="#CCC9C6"/>
<path d="M78.3245 94.946C78.3245 94.946 76.9958 98.9957 74.0218 101.748C74.0218 101.748 74.0218 95.0304 71.7122 89.2934C71.7122 89.2934 69.9405 85.4336 69.7191 85.17C69.4976 84.9063 66.0175 79.4435 65.3531 78.5999C65.3531 78.5999 65.9225 80.2556 66.028 80.4138C66.1334 80.5719 69.4871 85.6762 69.5714 85.8765C69.6663 86.0769 70.162 88.2916 70.162 88.2916L71.2904 89.5992C71.2904 89.5992 74.3698 96.7178 73.8003 103.973C73.8003 103.973 71.9021 109.362 73.6422 109.763C75.3822 110.153 76.6477 110.079 77.8183 107.211L78.4405 106.631L78.5776 105.808L78.2085 105.091L78.198 104.87C78.198 104.87 78.4405 103.889 78.4511 103.668C78.4616 103.457 78.6937 101.432 78.6937 101.432L78.778 99.871C78.778 99.871 78.7042 95.4733 78.3245 94.946Z" fill="#E1DEDA"/>
<path d="M59.8165 65.8289C59.8165 65.8289 60.7445 71.3866 61.1769 72.0615V70.7538C61.1769 70.7538 60.175 66.6831 59.8165 65.8289Z" fill="#CECBC8"/>
<path d="M69.1707 99.6075C69.1707 99.6075 68.5274 88.007 65.68 81.9747C62.8431 75.9424 60.3543 70.2055 56.041 63.9201C51.7277 57.6347 44.8096 41.858 43.7656 36.3636C42.7215 30.8797 42.4051 20.028 46.5708 11.7178C46.5708 11.7178 42.1415 24.9635 44.314 35.5094C46.4864 46.0658 59.0255 67.3686 60.5863 69.6782C62.1471 71.9983 69.4871 83.5355 69.1707 99.6075Z" fill="#E1DEDA"/>
<path d="M68.7172 72.6099C68.7172 72.6099 69.0758 71.9982 69.255 72.1564C69.4343 72.3146 69.3183 72.6942 69.698 73.0423C70.0776 73.3903 69.7612 73.8965 69.4238 73.6645C69.4238 73.6645 69.4976 73.9176 69.3605 74.0441C69.2234 74.1707 68.9703 74.1601 68.675 73.9281C68.3797 73.6961 68.0317 73.4325 67.9262 73.3586C67.8208 73.2954 68.0106 72.8419 68.2743 72.8102C68.2743 72.8102 67.5255 72.2619 67.2197 71.5342C66.9138 70.8065 67.0826 70.7222 67.188 70.7432C67.2829 70.7854 68.0844 71.1756 68.7172 72.6099Z" fill="#8C1539"/>
<path d="M72.1446 77.1024C72.1446 77.1024 70.9951 76.1533 70.7104 75.6576C70.4362 75.1619 69.9405 74.5925 69.487 74.5819C69.0336 74.5714 69.1707 75.278 69.9511 75.7209C70.7315 76.1638 70.7631 76.2798 70.7631 76.4696C70.7525 76.6595 71.1322 77.2184 71.438 77.345C71.7439 77.482 72.3555 77.8933 72.4399 78.0937C72.5243 78.2941 73.0832 79.0323 73.9796 78.9585C74.876 78.8847 74.7389 77.4715 74.5385 77.2395C74.3382 77.0075 73.7265 76.3642 73.6738 76.1638C73.621 75.9634 73.0726 75.0354 72.7668 74.8456C72.461 74.6557 72.3028 74.8139 72.1341 74.5503C71.9548 74.2866 71.1427 73.2848 70.6682 73.3164C70.1936 73.348 70.51 74.0019 70.9951 74.2866C71.4802 74.5714 72.8617 75.3412 73.1359 76.1427C73.1359 76.1427 72.0391 75.0881 71.5646 74.8456C71.09 74.603 70.6049 74.5081 70.5944 74.7717C70.5944 75.0459 70.5205 75.2041 72.1446 77.1024Z" fill="#8C1539"/>
<path d="M70.278 76.3643C70.278 76.3643 68.9597 75.5628 68.3797 75.9108C67.7997 76.2588 68.5801 76.8916 69.0758 76.8072C69.5714 76.7229 69.1812 76.2694 70.3307 76.3854L70.278 76.3643Z" fill="#8C1539"/>
<path d="M72.1446 74.0019C72.1446 74.0019 71.0162 72.9473 71.1955 72.2935C71.3748 71.6396 72.1868 72.2196 72.2501 72.7258C72.3028 73.232 71.7544 72.9789 72.1868 74.0546L72.1446 74.0019Z" fill="#8C1539"/>
<path d="M74.5491 79.3278C74.5491 79.3278 74.0851 79.8235 72.9145 79.1064C71.7544 78.3892 69.8878 76.607 69.0125 77.1976C69.0125 77.1976 69.4238 77.5983 69.4238 77.651C69.4238 77.651 68.6328 77.7038 68.4852 78.1678C68.4852 78.1678 69.1179 78.6423 69.0968 78.7162C69.0757 78.79 68.4852 79.3489 68.9597 79.5915C68.9597 79.5915 69.0863 79.37 69.3816 79.5915C69.6769 79.8129 69.8667 80.4035 70.5733 80.4035C71.2798 80.4141 71.67 79.4438 70.6787 78.7373C70.3307 78.5263 69.9827 78.6634 70.0671 79.0009C70.0671 79.0009 70.8791 79.022 70.7842 79.7075C70.6787 80.393 69.8561 79.6969 69.6136 79.3067C69.3605 78.9165 69.487 77.8198 70.4467 78.0623C71.4064 78.3049 72.1762 79.3067 72.5032 79.5809C72.8195 79.8657 74.4014 80.5828 74.5491 79.3278Z" fill="#8C1539"/>
<path d="M75.0553 78.7581C75.0553 78.7581 75.5826 78.3362 74.9709 77.1129C74.3487 75.9001 72.7141 73.907 73.3785 73.0738C73.3785 73.0738 73.7476 73.5168 73.8003 73.5168C73.8003 73.5168 73.9163 72.7364 74.3804 72.6204C74.3804 72.6204 74.8022 73.2848 74.876 73.2742C74.9498 73.2637 75.5509 72.7153 75.7619 73.2109C75.7619 73.2109 75.5298 73.3164 75.7302 73.6328C75.9306 73.9491 76.5001 74.1812 76.4474 74.8877C76.3946 75.5943 75.4033 75.9001 74.7811 74.8561C74.6018 74.487 74.76 74.1495 75.0975 74.2655C75.0975 74.2655 75.0553 75.0776 75.7408 75.0354C76.4263 74.9932 75.7935 74.1179 75.4349 73.8331C75.0658 73.5589 73.9691 73.5906 74.1272 74.5608C74.296 75.531 75.224 76.3853 75.4771 76.7333C75.7302 77.0918 76.3208 78.7159 75.0553 78.7581Z" fill="#8C1539"/>
<path d="M79.2737 78.6422C79.2737 78.6422 78.0925 78.0094 78.2613 79.391C78.43 80.7725 80.1279 80.7619 81.2247 82.5547C82.3214 84.3581 80.9927 85.6869 80.9927 85.6869C80.9927 85.6869 81.2247 84.4952 80.4021 83.4828C79.5795 82.4704 76.9536 80.2874 76.6266 79.3699C76.2997 78.4524 76.4263 77.5982 77.0801 77.4927C77.7445 77.3872 78.7358 77.6192 79.2737 78.6422Z" fill="#8C1539"/>
<path d="M74.0745 84.0418C74.0745 84.0418 73.3152 83.6832 73.3574 82.2279C73.3996 80.7725 74.8444 80.2136 76.3419 82.2911C77.8289 84.3687 77.3016 86.0666 79.4635 86.8997C79.4635 86.8997 79.1365 87.5325 78.0398 87.2688C76.943 87.0052 76.5317 86.0139 76.0677 84.2105C75.6037 82.4177 73.7581 82.5231 74.0745 84.0418Z" fill="#8C1539"/>
<path d="M76.0572 80.4033C76.0572 80.4033 77.4492 82.9133 77.5441 83.2402C77.639 83.5671 78.7147 86.0032 79.6111 85.961C79.801 85.961 80.5392 86.8047 82.796 92.7948C82.9331 93.1006 82.8698 93.4275 82.8276 93.5435C82.7855 93.6595 82.3425 94.6192 84.1248 95.948C84.1248 95.948 84.2619 94.4927 84.1248 93.8916C83.9877 93.2904 83.4077 93.2693 83.1651 92.4257C82.9331 91.5715 81.0032 87.1738 80.4443 86.3723C79.8853 85.5708 80.3704 85.3599 80.2755 85.0224C80.1912 84.6639 79.3369 82.4914 76.0572 80.4033Z" fill="#8C1539"/>
<path d="M82.216 85.1597C82.216 85.1597 81.4883 86.5834 81.9629 87.8278C82.448 89.0722 83.0386 89.9897 82.9858 90.3588C82.9858 90.3588 83.6713 90.2323 83.9455 89.1144C84.2302 88.0071 82.3531 85.5921 82.216 85.1597Z" fill="#8C1539"/>
<path d="M78.5987 87.7644C78.5987 87.7644 79.4635 89.7154 79.6955 90.6434C79.9275 91.5715 81.2879 91.6242 81.7941 91.0969C81.7941 91.0969 81.2774 89.8103 81.1508 89.4939C81.0348 89.1776 80.8134 87.8593 78.5987 87.7644Z" fill="#8C1539"/>
<path d="M85.2848 90.7911C84.8735 90.77 83.7557 91.2024 83.7557 91.2024C84.0615 90.4115 84.8735 89.8525 84.8735 89.8525C84.8841 89.8631 84.8946 89.8736 84.9052 89.8947C85.0634 90.1267 85.2848 90.7911 85.2848 90.7911Z" fill="#8C1539"/>
<path d="M81.8047 92.3518C81.8047 92.3518 78.8518 94.461 78.3984 96.4858C78.3984 96.4858 78.1242 96.0007 78.1874 95.7581C78.1874 95.7581 77.3649 96.2643 77.1856 96.2011C77.1856 96.2011 77.6707 95.1886 77.7023 95.1148C77.7234 95.041 77.386 95.041 77.386 95.041C77.386 95.041 78.7464 92.1409 81.8047 92.3518Z" fill="#8C1539"/>
<path d="M82.7116 93.2061C82.7116 93.2061 81.7309 93.533 81.0559 94.6508C80.3915 95.7687 80.5497 96.3698 81.0137 96.6968C81.0137 96.6968 81.9418 96.0429 81.6676 95.2414C81.6676 95.2414 82.7116 95.2309 82.7644 95.1992C82.8171 95.1465 82.0789 94.1552 82.7116 93.2061Z" fill="#8C1539"/>
<path d="M83.7662 92.5839C83.7662 92.5839 83.8928 92.0249 85.7383 92.0988C85.7383 92.0988 86.1707 93.3432 86.2129 93.7861C86.2129 93.7861 85.8543 93.3115 85.6961 93.3115C85.6961 93.3115 85.327 94.1025 84.8314 94.1236C84.8208 94.113 84.8946 92.8581 83.7662 92.5839Z" fill="#8C1539"/>
<path d="M83.0069 95.3997C83.0069 95.3997 83.26 96.4121 82.9647 96.971C82.6694 97.5405 82.1211 97.8674 81.5727 97.2768C81.5727 97.2768 82.0261 97.1608 82.1527 96.8128C82.2792 96.4648 82.7222 95.3997 83.0069 95.3997Z" fill="#8C1539"/>
<path d="M83.4077 95.8743C83.4077 95.8743 83.5553 97.53 83.0702 97.8991C83.0702 97.8991 84.0088 98.0362 84.167 97.298C84.3251 96.5598 83.4709 95.8743 83.4077 95.8743Z" fill="#8C1539"/>
<path d="M84.631 96.8972C84.631 96.8972 84.399 98.3104 84.8208 98.4158C85.2426 98.5213 85.5274 97.9096 85.2743 97.6565C85.0106 97.4034 84.6732 97.0027 84.631 96.8972Z" fill="#8C1539"/>
<path d="M86.3289 96.5807C86.3289 96.5807 85.9281 97.1712 85.6961 97.2134C85.4747 97.2556 84.6204 97.0763 84.8314 95.6421C84.8314 95.6421 85.6856 96.4752 85.907 96.5385C86.1285 96.6018 86.3289 96.5807 86.3289 96.5807Z" fill="#8C1539"/>
<path d="M86.7086 95.484C86.6875 95.5156 86.6664 95.5578 86.6347 95.6C86.1918 96.2855 85.4958 95.8004 85.3587 95.5262C85.2216 95.252 84.7892 94.6614 84.7892 94.6614C84.7892 94.6614 85.0845 94.229 85.7067 94.7669C86.0442 95.0622 86.4238 95.0833 86.6242 95.1465C86.6664 95.252 86.6875 95.368 86.7086 95.484Z" fill="#8C1539"/>
<path d="M72.7985 84.5269C72.7985 84.5269 74.4647 85.9822 73.1992 87.6906C73.1992 87.6906 74.4436 87.5957 74.4014 86.2775C74.3487 84.9698 72.7985 84.5269 72.7985 84.5269Z" fill="#8C1539"/>
<path d="M71.4908 86.7308C71.4908 86.7308 71.417 88.0596 72.3555 87.817C73.2836 87.5639 73.6105 86.0981 72.4821 85.0118C71.3537 83.9256 70.2253 84.9064 70.1515 85.2438C70.1515 85.2438 69.4343 84.6744 69.4132 84.5162C69.4132 84.5162 68.6434 84.9064 69.5609 86.5304C69.5609 86.5304 68.6539 86.5199 68.5907 86.3195C68.5907 86.3195 68.0634 87.237 69.7085 88.3443C69.7085 88.3443 69.0758 88.6924 69.0019 88.7134C69.0019 88.7134 69.4554 89.9473 70.9318 89.8419C72.4083 89.7364 73.8953 88.7662 75.435 89.0931C76.9747 89.42 78.0503 91.023 77.3438 93.1006C77.2383 93.3115 77.3649 93.6068 77.4281 93.6384C77.4281 93.6384 77.9976 92.7209 77.9871 91.7401C77.9765 90.7594 77.8711 89.7153 76.0888 88.7451C74.3065 87.7643 71.8915 89.3673 70.4678 87.7643C69.0441 86.1613 71.5857 84.2842 72.345 86.0137C72.4926 86.3723 72.4399 87.5534 71.4908 86.7308Z" fill="#8C1539"/>
<path d="M77.1961 91.5609C77.1961 91.5609 74.1484 90.6961 71.7122 93.2061C71.7122 93.2061 71.8493 92.2464 72.1341 92.046C72.1341 92.046 71.1744 92.0038 71.1217 92.0355C71.1217 92.0355 71.7439 91.002 72.5348 90.8121C72.5348 90.8121 72.3134 90.7383 72.1341 90.77C72.1235 90.7594 75.1502 88.2811 77.1961 91.5609Z" fill="#8C1539"/>
<path d="M66.8295 112.168C66.8295 112.168 66.7029 109.932 64.5621 108.951C64.5621 108.951 65.0472 108.835 65.4163 109.025C65.4163 109.025 65.3214 108.413 65.1843 108.308C65.1843 108.308 65.9542 108.582 66.2705 109.004C66.2705 109.004 66.3233 108.793 66.2389 108.698C66.2283 108.688 68.559 110.153 66.8295 112.168Z" fill="#8C1539"/>
<path d="M68.6539 107.148C68.6539 107.148 67.9157 107.285 68.1266 107.865C68.3375 108.445 69.3816 108.645 69.8878 108.181C70.394 107.717 70.7947 106.315 69.2129 105.777C69.2129 105.777 69.3394 105.091 69.4765 105.091C69.4765 105.091 68.7805 104.912 68.2743 105.84C68.2743 105.84 67.9895 105.45 68.0844 105.07C68.0844 105.07 67.2197 105.281 67.0615 106.441C67.0615 106.441 66.6713 106.167 66.6713 106.093C66.6713 106.093 65.8276 106.842 66.5975 107.854C67.3673 108.867 68.3692 109.869 68.3797 110.596C68.3903 111.324 67.6837 112.748 66.4182 112.727C66.1651 112.727 65.8592 112.959 66.1229 113.159C66.3865 113.37 68.1266 112.79 68.675 111.894C69.2234 110.997 69.0969 110.143 68.5274 109.468C67.9579 108.793 67.1775 107.601 67.7259 106.715C68.2743 105.83 69.2234 106.062 69.466 106.578C69.7085 107.095 69.3394 107.601 69.0652 107.654C68.7805 107.738 68.3797 107.528 68.6539 107.148Z" fill="#8C1539"/>
<path d="M67.4201 115.279C67.4201 115.279 65.5534 113.897 64.0664 114.182C64.0664 114.182 64.2985 113.813 64.4883 113.802C64.4883 113.802 64.0454 113.402 63.9504 113.37C63.9504 113.37 64.425 113.243 64.8468 113.412C64.8468 113.412 64.8047 113.233 64.7414 113.191C64.7519 113.201 66.9455 113.518 67.4201 115.279Z" fill="#8C1539"/>
<path d="M69.3078 111.777C69.3078 111.777 68.3797 112.695 68.0528 112.874C67.7364 113.053 67.1669 113.454 67.3884 113.96C67.6099 114.467 67.8735 114.646 67.8735 114.646C67.8735 114.646 69.0757 113.623 69.3183 113.222C69.5609 112.821 69.3816 111.904 69.3078 111.777Z" fill="#8C1539"/>
<path d="M75.9306 110.744C75.9306 110.744 75.9306 109.974 75.5088 110.101C75.0869 110.227 74.6229 110.786 74.5069 111.356C74.4225 111.735 74.18 112.431 73.7371 112.937C73.5156 113.18 73.2625 113.38 72.9461 113.486C71.9864 113.792 71.4802 113.517 71.2904 113.307C71.2904 113.307 69.9405 114.635 68.8543 115.679C68.5168 115.606 68.2004 115.532 67.9052 115.447C68.4219 115.078 69.8351 114.034 70.6154 112.937C70.6154 112.937 70.5205 112.821 70.4151 112.674C70.2674 112.463 70.0671 112.189 70.0143 112.031C69.9194 111.746 69.8667 110.997 70.7104 110.512C71.5646 110.037 72.3028 109.299 72.1868 108.814C72.0708 108.329 71.4064 108.361 71.1955 108.635C71.1955 108.635 71.5119 107.58 72.5664 107.622C72.7035 107.633 72.8195 107.654 72.925 107.696C73.5683 107.96 73.3574 108.835 73.1992 109.057C73.1781 109.088 73.1254 109.151 73.0621 109.225C72.693 109.7 71.8071 110.818 71.9231 111.208C71.9231 111.208 72.809 110.322 73.4207 109.668C73.716 109.362 73.948 109.099 74.0007 109.004C74.0007 109.004 73.9269 109.331 73.7898 109.784C73.6 110.375 73.3047 111.187 72.8934 111.767C72.9356 111.725 73.6843 111.029 73.9269 110.607C74.0218 110.449 74.1589 110.174 74.3382 109.879C74.6756 109.331 75.1291 108.73 75.6248 108.803C75.9939 108.856 76.247 109.109 76.3208 109.457C76.4157 109.826 76.3102 110.301 75.9306 110.744Z" fill="#8C1539"/>
<path d="M72.8301 114.119L71.2693 116.028C70.6998 115.985 70.1514 115.922 69.6452 115.838C70.394 115.057 71.6279 114.013 72.8301 114.119Z" fill="#8C1539"/>
<path d="M79.5584 113.402C79.5584 113.402 79.474 113.549 79.3264 113.75C79.0838 114.087 78.6515 114.541 78.1558 114.625C77.4281 114.741 74.296 113.612 72.1973 116.07C72.0497 116.07 71.9021 116.059 71.7544 116.059C72.5137 115.089 73.948 113.56 75.4244 113.792C75.9939 113.876 76.4685 113.918 76.8692 113.908C78.0082 113.876 78.5882 113.475 79.01 112.653C79.5795 111.545 79.2631 111.071 78.3562 111.387C77.4492 111.704 77.523 113.402 78.3667 112.431C78.3562 112.495 78.082 113.612 77.2383 113.085C76.3735 112.537 77.0379 109.943 79.0944 110.776C79.3475 110.86 79.6111 111.06 79.9592 110.132C79.9592 110.132 80.4232 110.47 79.6322 111.788C79.6322 111.788 80.2228 111.503 80.2966 111.303C80.2966 111.303 80.5497 112.052 79.126 113.402C79.1366 113.391 79.3791 113.465 79.5584 113.402Z" fill="#8C1539"/>
<path d="M76.9957 115.469C75.6458 115.827 74.3803 116.006 73.1992 116.059C74.0429 115.469 75.6248 114.657 76.9957 115.469Z" fill="#8C1539"/>
<path d="M76.479 105.513C76.479 105.513 76.6688 105.408 76.8903 105.081C77.1117 104.754 77.7867 104.248 78.0187 104.374C78.0187 104.374 77.9449 104.817 77.9871 104.849C77.9871 104.849 78.314 104.606 78.7886 104.838C78.7886 104.838 78.4722 105.334 78.5565 105.482C78.5565 105.482 79.0417 105.503 79.126 105.798C79.126 105.798 78.6831 105.893 78.6409 106.273C78.5987 106.652 78.3351 107.369 77.9554 107.38C77.5863 107.39 77.291 107.169 77.2699 106.694C77.2594 106.23 77.5758 105.46 78.0503 105.903C78.0503 105.903 77.4176 106.209 77.7867 106.715C78.1558 107.211 78.9678 105.703 77.9449 105.302C76.9114 104.902 76.8165 107.264 76.3841 107.759C75.9517 108.255 75.5299 108.255 75.0342 107.981C74.5385 107.707 74.1694 108.213 73.6105 107.496C73.041 106.779 73.9163 105.64 73.716 104.912C73.5156 104.184 72.8934 103.984 72.5665 104.469C72.2395 104.954 72.3239 105.619 72.6086 105.545C72.8934 105.471 73.1465 105.081 72.8828 104.891C72.8828 104.891 73.0832 104.585 73.2519 104.849C73.4101 105.112 73.2309 106.167 72.6825 106.188C72.1341 106.209 71.9337 105.703 72.0286 105.176C72.1341 104.648 72.4083 104.427 72.0075 104.322C72.0075 104.322 71.9653 103.794 72.7141 104.047C72.7141 104.047 72.7246 103.562 72.6086 103.457C72.6086 103.457 72.8934 103.256 73.4629 103.815C73.4629 103.815 73.5683 103.531 73.505 103.425C73.505 103.425 73.8847 103.383 74.1483 104.279C74.412 105.176 74.5491 105.155 74.5491 105.155C74.5491 105.155 74.6229 104.058 75.1186 103.889C75.6142 103.731 75.0131 103.161 75.0342 102.877C75.0342 102.877 75.4877 102.708 75.6775 103.035C75.6775 103.035 75.6564 101.263 75.9412 100.852C76.2364 100.441 76.4685 101.485 76.3841 102.044C76.2997 102.603 76.0255 102.877 76.3735 102.887C76.7216 102.898 76.7848 103.183 76.7848 103.183C76.7848 103.183 76.3841 103.826 76.3735 103.942C76.363 104.068 76.4474 104.3 76.5528 104.353C76.6583 104.406 76.8586 104.754 76.4052 105.482L76.479 105.513Z" fill="#8C1539"/>
<path d="M49.1967 25.6382C51.5439 25.6382 53.4467 23.7354 53.4467 21.3882C53.4467 19.041 51.5439 17.1382 49.1967 17.1382C46.8495 17.1382 44.9467 19.041 44.9467 21.3882C44.9467 23.7354 46.8495 25.6382 49.1967 25.6382Z" fill="#8C1539"/>
<path d="M47.6465 23.1391C47.6465 23.4449 47.5305 23.7085 47.3406 23.9089C46.7501 23.4765 46.3282 22.8438 46.149 22.1056C46.2755 22.0634 46.4021 22.0317 46.5392 22.0317C47.1508 22.0317 47.6465 22.5274 47.6465 23.1391Z" fill="white"/>
<path d="M47.8679 19.2581C47.8679 19.8698 47.3723 20.3655 46.7606 20.3655C46.5919 20.3655 46.4231 20.3233 46.2755 20.2495C46.5391 19.564 47.0453 18.9945 47.6781 18.6465C47.8046 18.8152 47.8679 19.0261 47.8679 19.2581Z" fill="white"/>
<path d="M51.0739 18.8786C50.8841 19.2055 50.536 19.4269 50.1247 19.4269C49.5131 19.4269 49.0174 18.9313 49.0174 18.3196C49.0174 18.2985 49.0174 18.2774 49.0174 18.2669C49.0807 18.2669 49.1334 18.2563 49.1967 18.2563C49.9033 18.2563 50.5571 18.4884 51.0739 18.8786Z" fill="white"/>
<path d="M52.3289 21.3885C52.3289 21.8314 52.2339 22.2533 52.0758 22.6329C51.5906 22.5169 51.2321 22.0845 51.2321 21.5572C51.2321 20.9877 51.6539 20.5237 52.2023 20.4604C52.2867 20.7557 52.3289 21.0616 52.3289 21.3885Z" fill="white"/>
<path d="M50.979 23.9615C50.4728 24.3201 49.8611 24.5205 49.1967 24.5205C49.0912 24.5205 48.9858 24.5099 48.8909 24.4994C48.8909 24.4888 48.8909 24.4677 48.8909 24.4572C48.8909 23.8455 49.3865 23.3499 49.9982 23.3499C50.4306 23.3604 50.7997 23.603 50.979 23.9615Z" fill="white"/>
<path d="M50.1986 22.3692L48.6062 22.6223L47.8785 21.188L49.0174 20.0491L50.4517 20.7767L50.1986 22.3692Z" fill="white"/>
<path d="M50.0659 28.9234L48.6341 27.4917L47.2546 28.8712L48.6863 30.303L50.0659 28.9234Z" fill="#8C1539"/>
<path d="M52.384 14.3167L51.3716 12.5632L49.682 13.5387L50.6945 15.2922L52.384 14.3167Z" fill="#8C1539"/>
<path d="M53.0671 65.3649L52.4449 64.3209L53.0143 63.9834L54.7861 66.9363L54.2166 67.2737L53.5944 66.2297L50.5571 68.0541L50.0298 67.1788L53.0671 65.3649Z" fill="#BCBAB7"/>
<path d="M54.5857 71.7558C55.1973 71.3867 55.9145 70.9754 56.3258 70.7539L56.3152 70.7329C55.5348 70.9754 54.1533 71.4394 52.7929 71.8191L52.3183 71.0281C53.2675 70.1423 54.3853 69.0877 54.997 68.5077L54.9759 68.476C54.5751 68.7608 53.8264 69.2353 53.2042 69.6044L51.9281 70.3743L51.4536 69.5728L55.0603 67.4109L55.8407 68.708C54.997 69.5623 54.1217 70.3848 53.6577 70.7961V70.8067C54.206 70.6169 55.4715 70.2688 56.5789 69.9525L57.3382 71.2285L53.7315 73.3904L53.2358 72.5573L54.5857 71.7558Z" fill="#BCBAB7"/>
</svg>
